<svg width="38" height="39" viewBox="0 0 38 39" fill="none" xmlns="http://www.w3.org/2000/svg">
<g id="ARROW">
<path id="Vector" fill-rule="evenodd" clip-rule="evenodd" d="M9.23768 28.9847C8.743 28.4899 8.743 27.6879 9.23768 27.1934L26.0754 10.3556H15.2C14.5005 10.3556 13.9333 9.78846 13.9333 9.0889C13.9333 8.38935 14.5005 7.82224 15.2 7.82224H29.1333C29.4693 7.82224 29.7915 7.95569 30.0291 8.19324C30.2665 8.43079 30.4 8.75296 30.4 9.0889V23.0223C30.4 23.7218 29.8328 24.2889 29.1333 24.2889C28.4339 24.2889 27.8667 23.7218 27.8667 23.0223V12.1469L11.029 28.9847C10.5343 29.4792 9.73234 29.4792 9.23768 28.9847Z" fill="black"/>
</g>
</svg>
